<svg width="33" height="33" viewBox="0 0 33 33" fill="none" xmlns="http://www.w3.org/2000/svg">
<g id="arrow-right">
<mask id="mask0_117_42" style="mask-type:luminance" maskUnits="userSpaceOnUse" x="0" y="0" width="33" height="33">
<rect id="Background" x="0.450195" y="0.5" width="32" height="32" fill="white"/>
</mask>
<g mask="url(#mask0_117_42)">
<path id="Shape" fill-rule="evenodd" clip-rule="evenodd" d="M22.1741 16.4997H9.11686C8.74867 16.4997 8.4502 16.2012 8.4502 15.833C8.4502 15.4648 8.74867 15.1663 9.11686 15.1663H22.1741L17.9788 10.9711C17.7184 10.7107 17.7184 10.2886 17.9788 10.0283C18.2391 9.76792 18.6613 9.76792 18.9216 10.0283L24.2549 15.3616C24.5153 15.622 24.5153 16.0441 24.2549 16.3044L18.9216 21.6377C18.6613 21.8981 18.2391 21.8981 17.9788 21.6377C17.7184 21.3774 17.7184 20.9553 17.9788 20.6949L22.1741 16.4997Z" fill="white"/>
</g>
</g>
</svg>
