<svg width="24" height="24" viewBox="0 0 24 24" fill="none" xmlns="http://www.w3.org/2000/svg">
<g id="chevron-left">
<mask id="mask0_12_1510" style="mask-type:luminance" maskUnits="userSpaceOnUse" x="0" y="0" width="24" height="24">
<rect id="Background" width="24" height="24" fill="white"/>
</mask>
<g mask="url(#mask0_12_1510)">
<path id="Shape" fill-rule="evenodd" clip-rule="evenodd" d="M17.0314 2.46936C17.1724 2.61007 17.2517 2.80112 17.2517 3.00036C17.2517 3.19961 17.1724 3.39066 17.0314 3.53136L8.56086 12.0004L17.0314 20.4694C17.3246 20.7626 17.3246 21.238 17.0315 21.5313C16.7383 21.8246 16.2629 21.8247 15.9695 21.5315L6.96936 12.5314C6.8283 12.3907 6.74902 12.1996 6.74902 12.0004C6.74902 11.8011 6.8283 11.6101 6.96936 11.4694L15.9694 2.46936C16.1101 2.3283 16.3011 2.24902 16.5004 2.24902C16.6996 2.24902 16.8907 2.3283 17.0314 2.46936V2.46936Z" fill="#757575"/>
</g>
</g>
</svg>
