<svg width="25" height="25" viewBox="0 0 25 25" fill="none" xmlns="http://www.w3.org/2000/svg">
<g id="icon-mail">
<mask id="mask0_12_1529" style="mask-type:luminance" maskUnits="userSpaceOnUse" x="0" y="0" width="25" height="25">
<rect id="Background" x="0.450195" y="0.5" width="24" height="24" fill="white"/>
</mask>
<g mask="url(#mask0_12_1529)">
<path id="Shape" fill-rule="evenodd" clip-rule="evenodd" d="M4.4502 4.5H20.4502C21.5548 4.5 22.4502 5.39543 22.4502 6.5V18.5C22.4502 19.6046 21.5548 20.5 20.4502 20.5H4.4502C3.34563 20.5 2.4502 19.6046 2.4502 18.5V6.5C2.4502 5.4 3.3502 4.5 4.4502 4.5ZM20.4502 7.88V6.5H4.4502V7.88L12.4502 11.88L20.4502 7.88ZM20.4502 10.12L12.9002 13.89C12.6171 14.0326 12.2832 14.0326 12.0002 13.89L4.4502 10.12V18.5H20.4502V10.12Z" fill="#9E9E9E"/>
</g>
</g>
</svg>
