<svg width="25" height="25" viewBox="0 0 25 25" fill="none" xmlns="http://www.w3.org/2000/svg">
<g id="icon-heart.svg">
<mask id="mask0_8533_101" style="mask-type:luminance" maskUnits="userSpaceOnUse" x="1" y="1" width="24" height="23">
<g id="clip0">
<path id="Vector" d="M25 1H1V24H25V1Z" fill="white"/>
</g>
</mask>
<g mask="url(#mask0_8533_101)">
<g id="Group">
<path id="Vector_2" d="M18.5048 1C17.3788 1.01751 16.2773 1.33185 15.3116 1.91127C14.3459 2.49069 13.5502 3.31467 13.0048 4.3C12.4595 3.31467 11.6638 2.49069 10.6981 1.91127C9.73238 1.33185 8.63089 1.01751 7.50484 1C5.70978 1.07799 4.01854 1.86325 2.80062 3.18423C1.5827 4.50521 0.93709 6.25452 1.00484 8.05C1.00484 14.825 11.9608 22.65 12.4268 22.982L13.0048 23.391L13.5828 22.982C14.0488 22.652 25.0048 14.825 25.0048 8.05C25.0726 6.25452 24.427 4.50521 23.2091 3.18423C21.9911 1.86325 20.2999 1.07799 18.5048 1ZM13.0048 20.929C9.75184 18.499 3.00484 12.529 3.00484 8.05C2.93648 6.78471 3.37121 5.54373 4.2142 4.5977C5.0572 3.65167 6.24007 3.07735 7.50484 3C8.76961 3.07735 9.95248 3.65167 10.7955 4.5977C11.6385 5.54373 12.0732 6.78471 12.0048 8.05H14.0048C13.9365 6.78471 14.3712 5.54373 15.2142 4.5977C16.0572 3.65167 17.2401 3.07735 18.5048 3C19.7696 3.07735 20.9525 3.65167 21.7955 4.5977C22.6385 5.54373 23.0732 6.78471 23.0048 8.05C23.0048 12.531 16.2578 18.499 13.0048 20.929Z" fill="black"/>
</g>
</g>
</g>
</svg>
