<svg width="25" height="25" viewBox="0 0 25 25" fill="none" xmlns="http://www.w3.org/2000/svg">
<g clip-path="url(#clip0_8533_108)">
<g clip-path="url(#clip1_8533_108)">
<g clip-path="url(#clip2_8533_108)">
<path d="M5 14.5L3.5 5V4.5H23.5L21 14.5H5Z" fill="#FFB21D"/>
<mask id="mask0_8533_108" style="mask-type:luminance" maskUnits="userSpaceOnUse" x="0" y="0" width="25" height="25">
<path d="M24.4961 0.366516H0.496094V24.3665H24.4961V0.366516Z" fill="white"/>
</mask>
<g mask="url(#mask0_8533_108)">
<path d="M24.4961 3.36652H4.73809L4.69609 3.01552C4.61014 2.28593 4.25948 1.61325 3.71058 1.12499C3.16169 0.636739 2.45272 0.366858 1.71809 0.366516H0.496094V2.36652H1.71809C1.96302 2.36655 2.19943 2.45647 2.38246 2.61923C2.5655 2.78199 2.68243 3.00626 2.71109 3.24952L4.29609 16.7175C4.38204 17.4471 4.73271 18.1198 5.2816 18.608C5.8305 19.0963 6.53946 19.3662 7.27409 19.3665H20.4961V17.3665H7.27409C7.029 17.3665 6.79247 17.2764 6.60942 17.1134C6.42636 16.9505 6.30952 16.7259 6.28109 16.4825L6.15009 15.3665H22.3321L24.4961 3.36652ZM20.6601 13.3665H5.91509L4.97409 5.36652H22.1031L20.6601 13.3665Z" fill="black"/>
<path d="M7.49609 24.3665C8.60066 24.3665 9.49609 23.4711 9.49609 22.3665C9.49609 21.2619 8.60066 20.3665 7.49609 20.3665C6.39152 20.3665 5.49609 21.2619 5.49609 22.3665C5.49609 23.4711 6.39152 24.3665 7.49609 24.3665Z" fill="black"/>
<path d="M17.4961 24.3665C18.6007 24.3665 19.4961 23.4711 19.4961 22.3665C19.4961 21.2619 18.6007 20.3665 17.4961 20.3665C16.3916 20.3665 15.4961 21.2619 15.4961 22.3665C15.4961 23.4711 16.3916 24.3665 17.4961 24.3665Z" fill="black"/>
</g>
</g>
</g>
</g>
<defs>
<clipPath id="clip0_8533_108">
<rect width="25" height="25" fill="white"/>
</clipPath>
<clipPath id="clip1_8533_108">
<rect width="25" height="25" fill="white"/>
</clipPath>
<clipPath id="clip2_8533_108">
<rect width="25" height="25" fill="white"/>
</clipPath>
</defs>
</svg>
