<svg width="25" height="25" viewBox="0 0 25 25" fill="none" xmlns="http://www.w3.org/2000/svg">
<g clip-path="url(#clip0_8533_100)">
<path d="M11 4L13 7.5L13.5 5L17 2.5H19.5L22 4L23.5 6L24 8.5L23.5 11.5L20 16.5L13 22.5L11 21.5L4 14L1.5 8.5L3 4L7.5 2L11 4Z" fill="#FF0000"/>
<mask id="mask0_8533_100" style="mask-type:luminance" maskUnits="userSpaceOnUse" x="0" y="0" width="25" height="25">
<path d="M24.7773 0.366516H0.777344V24.3665H24.7773V0.366516Z" fill="white"/>
</mask>
<g mask="url(#mask0_8533_100)">
<path d="M18.2782 1.28351C17.1522 1.30102 16.0507 1.61536 15.085 2.19478C14.1193 2.7742 13.3236 3.59818 12.7782 4.58351C12.2329 3.59818 11.4372 2.7742 10.4715 2.19478C9.50582 1.61536 8.40433 1.30102 7.27828 1.28351C5.48322 1.3615 3.79198 2.14676 2.57406 3.46774C1.35614 4.78872 0.710528 6.53803 0.778279 8.33351C0.778279 15.1085 11.7342 22.9335 12.2002 23.2655L12.7782 23.6745L13.3562 23.2655C13.8222 22.9355 24.7782 15.1085 24.7782 8.33351C24.846 6.53803 24.2004 4.78872 22.9825 3.46774C21.7645 2.14676 20.0733 1.3615 18.2782 1.28351ZM12.7782 21.2125C9.52528 18.7825 2.77828 12.8125 2.77828 8.33351C2.70992 7.06822 3.14465 5.82724 3.98764 4.88121C4.83064 3.93518 6.01351 3.36086 7.27828 3.28351C8.54305 3.36086 9.72592 3.93518 10.5689 4.88121C11.4119 5.82724 11.8466 7.06822 11.7782 8.33351H13.7782C13.7099 7.06822 14.1446 5.82724 14.9876 4.88121C15.8306 3.93518 17.0135 3.36086 18.2782 3.28351C19.543 3.36086 20.7259 3.93518 21.5689 4.88121C22.4119 5.82724 22.8466 7.06822 22.7782 8.33351C22.7782 12.8145 16.0312 18.7825 12.7782 21.2125Z" fill="black"/>
</g>
</g>
<defs>
<clipPath id="clip0_8533_100">
<rect width="25" height="25" fill="white"/>
</clipPath>
</defs>
</svg>
