<svg width="18" height="18" viewBox="0 0 18 18" fill="none" xmlns="http://www.w3.org/2000/svg">
<path fill-rule="evenodd" clip-rule="evenodd" d="M9 1.621C11.405 1.621 11.689 1.632 12.635 1.674C13.514 1.713 13.989 1.86 14.305 1.983C14.723 2.145 15.026 2.342 15.339 2.654C15.655 2.97 15.849 3.269 16.014 3.688C16.137 4.004 16.285 4.483 16.323 5.358C16.365 6.307 16.376 6.592 16.376 8.993C16.376 11.394 16.365 11.682 16.323 12.628C16.284 13.507 16.137 13.982 16.014 14.298C15.8699 14.6882 15.6406 15.0414 15.343 15.332C15.027 15.648 14.728 15.842 14.309 16.007C13.993 16.13 13.514 16.278 12.639 16.316C11.69 16.358 11.405 16.369 9.004 16.369C6.603 16.369 6.315 16.358 5.369 16.316C4.49 16.277 4.015 16.13 3.699 16.007C3.3088 15.8629 2.95559 15.6336 2.665 15.336C2.36625 15.0455 2.1357 14.6924 1.99 14.302C1.867 13.986 1.719 13.507 1.681 12.632C1.639 11.683 1.628 11.398 1.628 8.997C1.628 6.596 1.639 6.308 1.681 5.362C1.72 4.483 1.867 4.008 1.99 3.692C2.152 3.274 2.349 2.971 2.661 2.658C2.977 2.342 3.276 2.148 3.695 1.983C4.011 1.86 4.49 1.712 5.365 1.674C6.311 1.632 6.595 1.621 9 1.621ZM9 0C6.557 0 6.251 0.011 5.291 0.053C4.335 0.095 3.677 0.25 3.108 0.471C2.50619 0.696935 1.96135 1.05231 1.512 1.512C1.05305 1.96079 0.697759 2.50448 0.471 3.105C0.25 3.678 0.095 4.332 0.053 5.288C0.011 6.251 0 6.557 0 9C0 11.443 0.011 11.749 0.053 12.709C0.095 13.665 0.25 14.323 0.471 14.892C0.696935 15.4938 1.05231 16.0387 1.512 16.488C1.96094 16.9458 2.50467 17.2998 3.105 17.525C3.678 17.746 4.332 17.901 5.288 17.943C6.248 17.985 6.554 17.996 8.997 17.996C11.44 17.996 11.746 17.985 12.706 17.943C13.662 17.901 14.32 17.746 14.889 17.525C15.489 17.2992 16.0326 16.9453 16.482 16.488C16.982 15.989 17.291 15.486 17.519 14.895C17.74 14.322 17.895 13.668 17.937 12.712C17.979 11.752 17.99 11.446 17.99 9.003C17.99 6.56 17.979 6.254 17.937 5.294C17.895 4.338 17.74 3.68 17.519 3.111C17.3023 2.50605 16.9499 1.95874 16.489 1.511C16.0401 1.0532 15.4963 0.69924 14.896 0.474C14.323 0.253 13.669 0.098 12.713 0.056C11.75 0.01 11.444 0 9 0ZM9 4.377C7.77407 4.37753 6.5985 4.86476 5.73163 5.73163C4.86476 6.5985 4.37753 7.77407 4.377 9C4.37753 10.2259 4.86476 11.4015 5.73163 12.2684C6.5985 13.1352 7.77407 13.6225 9 13.623C10.2259 13.6225 11.4015 13.1352 12.2684 12.2684C13.1352 11.4015 13.6225 10.2259 13.623 9C13.6225 7.77407 13.1352 6.5985 12.2684 5.73163C11.4015 4.86476 10.2259 4.37753 9 4.377ZM9 11.999C8.60149 12.0063 8.20553 11.9341 7.83524 11.7866C7.46495 11.6391 7.12776 11.4193 6.84336 11.1401C6.55897 10.8608 6.33307 10.5277 6.17886 10.1602C6.02465 9.79265 5.94523 9.39808 5.94523 8.9995C5.94523 8.60093 6.02465 8.20635 6.17886 7.83881C6.33307 7.47128 6.55897 7.13815 6.84336 6.8589C7.12776 6.57965 7.46495 6.35987 7.83524 6.2124C8.20553 6.06493 8.60149 5.99272 9 6C9.79565 6 10.5587 6.31607 11.1213 6.87868C11.6839 7.44129 12 8.20435 12 9C12 9.79565 11.6839 10.5587 11.1213 11.1213C10.5587 11.6839 9.79565 12 9 12V11.999ZM13.806 5.273C14.0922 5.273 14.3666 5.15932 14.569 4.95697C14.7713 4.75462 14.885 4.48017 14.885 4.194C14.885 3.90783 14.7713 3.63338 14.569 3.43103C14.3666 3.22868 14.0922 3.115 13.806 3.115C13.5198 3.115 13.2454 3.22868 13.043 3.43103C12.8407 3.63338 12.727 3.90783 12.727 4.194C12.727 4.48017 12.8407 4.75462 13.043 4.95697C13.2454 5.15932 13.5198 5.273 13.806 5.273Z" fill="white"/>
</svg>
