<svg width="18" height="18" viewBox="0 0 18 18" fill="none" xmlns="http://www.w3.org/2000/svg">
<g id="info">
<mask id="mask0_12_1515" style="mask-type:luminance" maskUnits="userSpaceOnUse" x="0" y="0" width="18" height="18">
<rect id="Background" width="18" height="18" fill="white"/>
</mask>
<g mask="url(#mask0_12_1515)">
<path id="Shape" fill-rule="evenodd" clip-rule="evenodd" d="M11.1891 0C12.3951 0 12.9981 0.8208 12.9981 1.7613C12.9981 2.9358 11.9505 4.0221 10.587 4.0221C9.4449 4.0221 8.7789 3.3471 8.8104 2.2311C8.81039 1.2924 9.6033 0 11.1891 0ZM7.47845 17.9999C6.52625 17.9999 5.82875 17.4131 6.49475 14.8283L7.58735 10.2455C7.77725 9.51295 7.80875 9.21865 7.58735 9.21865C7.30205 9.21865 6.06725 9.72445 5.33555 10.2239L4.86035 9.43195C7.17515 7.46455 9.83825 6.31165 10.9813 6.31165C11.9326 6.31165 12.091 7.45735 11.6158 9.21865L10.3639 14.0354C10.1425 14.8859 10.237 15.1793 10.4593 15.1793C10.7446 15.1793 11.6806 14.8265 12.6004 14.093L13.1404 14.8256C10.8886 17.1179 8.42885 17.9999 7.47845 17.9999Z" fill="#9E9E9E"/>
</g>
</g>
</svg>
