<svg width="162" height="30" viewBox="0 0 162 30" fill="none" xmlns="http://www.w3.org/2000/svg">
<g clip-path="url(#clip0_1_5158)">
<path fill-rule="evenodd" clip-rule="evenodd" d="M15 7.621C17.405 7.621 17.689 7.632 18.635 7.674C19.514 7.713 19.989 7.86 20.305 7.983C20.723 8.145 21.026 8.342 21.339 8.654C21.655 8.97 21.849 9.269 22.014 9.688C22.137 10.004 22.285 10.483 22.323 11.358C22.365 12.307 22.376 12.592 22.376 14.993C22.376 17.394 22.365 17.682 22.323 18.628C22.284 19.507 22.137 19.982 22.014 20.298C21.8699 20.6882 21.6406 21.0414 21.343 21.332C21.027 21.648 20.728 21.842 20.309 22.007C19.993 22.13 19.514 22.278 18.639 22.316C17.69 22.358 17.405 22.369 15.004 22.369C12.603 22.369 12.315 22.358 11.369 22.316C10.49 22.277 10.015 22.13 9.699 22.007C9.3088 21.8629 8.95559 21.6336 8.665 21.336C8.36625 21.0455 8.1357 20.6924 7.99 20.302C7.867 19.986 7.719 19.507 7.681 18.632C7.639 17.683 7.628 17.398 7.628 14.997C7.628 12.596 7.639 12.308 7.681 11.362C7.72 10.483 7.867 10.008 7.99 9.692C8.152 9.274 8.349 8.971 8.661 8.658C8.977 8.342 9.276 8.148 9.695 7.983C10.011 7.86 10.49 7.712 11.365 7.674C12.311 7.632 12.595 7.621 15 7.621ZM15 6C12.557 6 12.251 6.011 11.291 6.053C10.335 6.095 9.677 6.25 9.108 6.471C8.50619 6.69694 7.96135 7.05231 7.512 7.512C7.05305 7.96079 6.69776 8.50448 6.471 9.105C6.25 9.678 6.095 10.332 6.053 11.288C6.011 12.251 6 12.557 6 15C6 17.443 6.011 17.749 6.053 18.709C6.095 19.665 6.25 20.323 6.471 20.892C6.69694 21.4938 7.05231 22.0387 7.512 22.488C7.96094 22.9458 8.50467 23.2998 9.105 23.525C9.678 23.746 10.332 23.901 11.288 23.943C12.248 23.985 12.554 23.996 14.997 23.996C17.44 23.996 17.746 23.985 18.706 23.943C19.662 23.901 20.32 23.746 20.889 23.525C21.489 23.2992 22.0326 22.9453 22.482 22.488C22.982 21.989 23.291 21.486 23.519 20.895C23.74 20.322 23.895 19.668 23.937 18.712C23.979 17.752 23.99 17.446 23.99 15.003C23.99 12.56 23.979 12.254 23.937 11.294C23.895 10.338 23.74 9.68 23.519 9.111C23.3023 8.50605 22.9499 7.95874 22.489 7.511C22.0401 7.0532 21.4963 6.69924 20.896 6.474C20.323 6.253 19.669 6.098 18.713 6.056C17.75 6.01 17.444 6 15 6ZM15 10.377C13.7741 10.3775 12.5985 10.8648 11.7316 11.7316C10.8648 12.5985 10.3775 13.7741 10.377 15C10.3775 16.2259 10.8648 17.4015 11.7316 18.2684C12.5985 19.1352 13.7741 19.6225 15 19.623C16.2259 19.6225 17.4015 19.1352 18.2684 18.2684C19.1352 17.4015 19.6225 16.2259 19.623 15C19.6225 13.7741 19.1352 12.5985 18.2684 11.7316C17.4015 10.8648 16.2259 10.3775 15 10.377ZM15 17.999C14.6015 18.0063 14.2055 17.9341 13.8352 17.7866C13.4649 17.6391 13.1278 17.4193 12.8434 17.1401C12.559 16.8608 12.3331 16.5277 12.1789 16.1602C12.0247 15.7927 11.9452 15.3981 11.9452 14.9995C11.9452 14.6009 12.0247 14.2063 12.1789 13.8388C12.3331 13.4713 12.559 13.1382 12.8434 12.8589C13.1278 12.5797 13.4649 12.3599 13.8352 12.2124C14.2055 12.0649 14.6015 11.9927 15 12C15.7956 12 16.5587 12.3161 17.1213 12.8787C17.6839 13.4413 18 14.2044 18 15C18 15.7956 17.6839 16.5587 17.1213 17.1213C16.5587 17.6839 15.7956 18 15 18V17.999ZM19.806 11.273C20.0922 11.273 20.3666 11.1593 20.569 10.957C20.7713 10.7546 20.885 10.4802 20.885 10.194C20.885 9.90783 20.7713 9.63338 20.569 9.43103C20.3666 9.22868 20.0922 9.115 19.806 9.115C19.5198 9.115 19.2454 9.22868 19.043 9.43103C18.8407 9.63338 18.727 9.90783 18.727 10.194C18.727 10.4802 18.8407 10.7546 19.043 10.957C19.2454 11.1593 19.5198 11.273 19.806 11.273Z" fill="white"/>
</g>
<g clip-path="url(#clip1_1_5158)">
<path d="M57.7782 9.89155C57.0597 10.2152 56.2851 10.4306 55.4761 10.5266C56.3046 10.0269 56.9387 9.23436 57.2406 8.29167C56.4659 8.75317 55.6057 9.09161 54.6941 9.27252C53.961 8.48735 52.9187 8 51.7651 8C49.5499 8 47.7561 9.80786 47.7561 12.0378C47.7561 12.3529 47.7903 12.6606 47.8587 12.9572C44.5253 12.7873 41.5695 11.1801 39.5912 8.73471C39.2478 9.33036 39.0487 10.0269 39.0487 10.7653C39.0487 12.1658 39.7549 13.4039 40.8314 14.1263C40.1741 14.1066 39.5558 13.922 39.0132 13.623V13.6734C39.0132 15.6314 40.3952 17.2658 42.2318 17.6349C41.8957 17.7273 41.5402 17.7777 41.1736 17.7777C40.9145 17.7777 40.6653 17.7507 40.4172 17.7051C40.9292 19.3087 42.4102 20.4778 44.1636 20.5123C42.789 21.5965 41.0624 22.2426 39.1806 22.2426C38.8556 22.2426 38.5391 22.2229 38.2227 22.1848C40.0018 23.3342 42.1096 24 44.3738 24C51.7505 24 55.7877 17.8429 55.7877 12.5043C55.7877 12.327 55.7841 12.1548 55.7767 11.9812C56.56 11.4164 57.2394 10.7038 57.777 9.89277L57.7782 9.89155Z" fill="white"/>
</g>
<g clip-path="url(#clip2_1_5158)">
<path fill-rule="evenodd" clip-rule="evenodd" d="M74.0769 10.1538C75.2233 10.1538 76.1538 9.22334 76.1538 8.0769C76.1538 6.93045 75.2233 6 74.0769 6C72.9304 6 72 6.93045 72 8.0769C72 9.22334 72.9304 10.1538 74.0769 10.1538ZM72 24V11.5386H76.1538V24H72ZM78.9237 11.5386H82.7549V13.5019H82.8103C83.3433 12.5452 84.6476 11.5386 86.593 11.5386C90.6374 11.5386 91.3851 14.0558 91.3851 17.3303V24H87.3905V18.0877C87.3905 16.6782 87.3614 14.863 85.3136 14.863C83.234 14.863 82.9155 16.3985 82.9155 17.9853V24H78.9237V11.5386Z" fill="white"/>
</g>
<g clip-path="url(#clip3_1_5158)">
<path d="M123.998 14.999C123.998 10.029 119.969 6 114.999 6C110.029 6 106 10.029 106 14.999C106 19.491 109.291 23.214 113.593 23.889V17.6H111.308V14.999H113.593V13.016C113.593 10.761 114.937 9.515 116.992 9.515C117.977 9.515 119.007 9.691 119.007 9.691V11.906H117.872C116.754 11.906 116.405 12.6 116.405 13.311V14.999H118.901L118.502 17.6H116.405V23.889C120.707 23.214 123.998 19.491 123.998 14.999Z" fill="white"/>
</g>
<g clip-path="url(#clip4_1_5158)">
<path d="M147 8.07001C138.155 8.07001 138 8.85701 138 15C138 21.143 138.155 21.93 147 21.93C155.845 21.93 156 21.143 156 15C156 8.85701 155.845 8.07001 147 8.07001ZM149.884 15.301L145.843 17.187C145.489 17.351 145.199 17.167 145.199 16.777V13.224C145.199 12.834 145.489 12.65 145.843 12.814L149.884 14.7C150.238 14.866 150.238 15.136 149.884 15.301Z" fill="white"/>
</g>
<defs>
<clipPath id="clip0_1_5158">
<rect width="18" height="18" fill="white" transform="translate(6 6)"/>
</clipPath>
<clipPath id="clip1_1_5158">
<rect width="20" height="16" fill="white" transform="translate(38 8)"/>
</clipPath>
<clipPath id="clip2_1_5158">
<rect width="20" height="18" fill="white" transform="translate(72 6)"/>
</clipPath>
<clipPath id="clip3_1_5158">
<rect width="18" height="18" fill="white" transform="translate(106 6)"/>
</clipPath>
<clipPath id="clip4_1_5158">
<rect width="18" height="18" fill="white" transform="translate(138 6)"/>
</clipPath>
</defs>
</svg>
