<svg width="25" height="25" viewBox="0 0 25 25" fill="none" xmlns="http://www.w3.org/2000/svg">
<g id="lock">
<mask id="mask0_12_1539" style="mask-type:luminance" maskUnits="userSpaceOnUse" x="0" y="0" width="25" height="25">
<rect id="Background" x="0.450195" y="0.5" width="24" height="24" fill="white"/>
</mask>
<g mask="url(#mask0_12_1539)">
<path id="Shape" fill-rule="evenodd" clip-rule="evenodd" d="M15.9018 12.2097H7.77274C7.13138 12.2097 6.61145 12.7296 6.61145 13.371V19.1775C6.61145 19.8188 7.13138 20.3387 7.77274 20.3387H15.9018C16.5431 20.3387 17.0631 19.8188 17.0631 19.1775V13.371C17.0631 12.7296 16.5431 12.2097 15.9018 12.2097ZM7.77278 11.0483C6.49005 11.0483 5.4502 12.0882 5.4502 13.3709V19.1774C5.4502 20.4601 6.49005 21.5 7.77278 21.5H15.9018C17.1845 21.5 18.2244 20.4601 18.2244 19.1774V13.3709C18.2244 12.0882 17.1845 11.0483 15.9018 11.0483H7.77278ZM7.77283 7.56452C7.77283 6.11241 8.54752 4.7706 9.80508 4.04454C11.0626 3.31849 12.612 3.31849 13.8696 4.04454C15.1272 4.7706 15.9019 6.1124 15.9019 7.56451V11.0484H14.7406V7.56452C14.7406 5.96111 13.4408 4.66129 11.8373 4.66129C10.2339 4.66129 8.93413 5.9611 8.93412 7.5645V11.0484H7.77283V7.56452Z" fill="#9E9E9E"/>
</g>
</g>
</svg>
