<?xml version="1.0" ?><svg viewBox="0 0 436.33 283.39" xmlns="http://www.w3.org/2000/svg"><title/><g data-name="Layer 2" id="Layer_2"><g data-name="mountain, fuji, japan, landscape, nature, mount, landmark, tokyo, mt, volcano, travel, beautiful" id="mountain_fuji_japan_landscape_nature_mount_landmark_tokyo_mt_volcano_travel_beautiful"><path d="M322.23,198.49a5.48,5.48,0,0,0-.66,7.71l.36.42a5.47,5.47,0,1,0,8.38-7l-.38-.45A5.47,5.47,0,0,0,322.23,198.49Z"/><path d="M156.72,169.74a5.47,5.47,0,0,0-7.66,1c-8.69,11.42-18.38,22.95-28.81,34.26a5.47,5.47,0,0,0,6.18,8.73c2.58-1.11,5.07-2.12,7.39-3a6.63,6.63,0,0,1,8.82,4.84l.08.4A20,20,0,0,0,175.59,227c4.64-4.1,9-7.89,13.1-11.26a24,24,0,0,1,30.74.08c4.72,4,9.39,8.11,13.89,12.32A19.88,19.88,0,0,0,247,233.52a20.12,20.12,0,0,0,7.2-1.34A19.87,19.87,0,0,0,267,215.29c.7-7.8,1.56-15.13,2.56-21.79a8.34,8.34,0,0,1,14.14-4.65c2.81,2.81,5.76,5.61,8.79,8.32a14.11,14.11,0,0,0,20.69-19,435.87,435.87,0,0,1-42.08-68.11,24.09,24.09,0,0,0-21.51-13.4H246a5.47,5.47,0,1,0,0,10.93h3.54a13.1,13.1,0,0,1,11.69,7.27,447.17,447.17,0,0,0,43.15,69.88,3.17,3.17,0,0,1-4.65,4.28c-2.87-2.58-5.68-5.24-8.35-7.91a19.28,19.28,0,0,0-32.68,10.76c-1,6.87-1.92,14.42-2.64,22.43a9.1,9.1,0,0,1-15.28,5.81c-4.64-4.35-9.46-8.62-14.33-12.71a34.89,34.89,0,0,0-44.75-.12c-4.15,3.45-8.64,7.31-13.36,11.48a9.11,9.11,0,0,1-14.93-5l-.09-.43a17.56,17.56,0,0,0-8.73-11.76,17.28,17.28,0,0,0-5-1.82c6.42-7.44,12.49-14.93,18.16-22.37A5.47,5.47,0,0,0,156.72,169.74Z"/><path d="M180.75,133.2a5.4,5.4,0,0,0,2.63.68,5.47,5.47,0,0,0,4.79-2.83c2.93-5.33,5.7-10.73,8.22-16a13.09,13.09,0,0,1,11.75-7.43h15.38a5.47,5.47,0,0,0,0-10.93H208.14a24.05,24.05,0,0,0-21.62,13.66c-2.43,5.1-5.1,10.3-7.93,15.45A5.46,5.46,0,0,0,180.75,133.2Z"/><path d="M44.67,156.78a5.46,5.46,0,0,0-5.46-5.47H31.43a15.33,15.33,0,0,1,13.9-8.2A5.49,5.49,0,0,0,51,138.75c.75-3.69,2.27-6.31,4.51-7.77,3.72-2.42,8.64-1.39,8.65-1.39a5.46,5.46,0,0,0,6.71-5.53,19.71,19.71,0,0,1,3.93-12.64A20.06,20.06,0,0,1,91.59,103c16.21.3,18.17,19,18.24,19.8a5.46,5.46,0,0,0,7.62,4.54c4.62-2,8.64-2.18,12.29-.53,8.41,3.79,12.42,15.82,12.46,15.94h0a4.88,4.88,0,0,0,.36.81c0,.06.05.13.08.19v0a5.43,5.43,0,0,0,.63.88h0l.15.13a5.86,5.86,0,0,0,.63.59c.14.11.29.19.43.28s.3.2.46.28a4.5,4.5,0,0,0,.51.2c.16.06.31.13.48.18s.33.06.49.09a3.32,3.32,0,0,0,.55.09,4.34,4.34,0,0,0,.51,0c.18,0,.36,0,.55,0a5,5,0,0,0,.75-.16l.27-.06h0a5.82,5.82,0,0,0,.77-.34l.24-.1c.06,0,.11-.09.18-.13a6.09,6.09,0,0,0,.71-.51h0c6.46-5.66,14.39,1.35,15.33,2.22a31.36,31.36,0,0,0,5.56,3.88H68.77a5.47,5.47,0,1,0,0,10.93H201.15a5.46,5.46,0,0,0,1.46-10.73c-8.64-2.38-24.13-7.79-28.84-12.09-4.48-4.23-14.24-9.8-23.83-6.18-2.75-5.35-7.77-12.76-15.65-16.34a23.79,23.79,0,0,0-14.81-1.6c-2.87-10.19-10.79-22.88-27.68-23.2a31.54,31.54,0,0,0-31.47,26.37,21.57,21.57,0,0,0-10.61,3.27,20.46,20.46,0,0,0-8.24,10.66c-7.51,1.06-17.62,5.86-21.86,18.91H5.47a5.47,5.47,0,1,0,0,10.93H39.21A5.45,5.45,0,0,0,44.67,156.78Z"/><path d="M285.4,51.81a5.46,5.46,0,0,0,8.71-2.44c0-.11,4-11.54,12.26-15.29,3.73-1.68,7.84-1.54,12.57.45A5.49,5.49,0,0,0,326.5,30c.18-1.92,2.29-18.78,18.23-19.06a20.47,20.47,0,0,1,16.81,8.12,18.37,18.37,0,0,1,3.87,12.06,5.47,5.47,0,0,0,6.68,5.55c.05,0,5.06-1,8.8,1.39,2.22,1.42,3.66,3.83,4.4,7.38A5.51,5.51,0,0,0,391,49.77c.54,0,13.2-.65,16.17,14.14h0a2,2,0,0,0,.07.23,5.11,5.11,0,0,0,.23.76c0,.1.1.2.15.3a4.71,4.71,0,0,0,.32.59c.07.11.15.2.22.3s.26.33.4.49l.28.26a4.42,4.42,0,0,0,.47.39l.33.22a5.45,5.45,0,0,0,.53.29l.36.17c.21.08.43.14.65.2l.31.08a5.07,5.07,0,0,0,1,.11h10a5.47,5.47,0,1,0,0-10.93h-5.84A26.37,26.37,0,0,0,394.8,39.05a20.14,20.14,0,0,0-8-10.2,22,22,0,0,0-10.8-3.3,29.41,29.41,0,0,0-5.72-13.08A31.18,31.18,0,0,0,344.53,0c-16.83.3-24.76,12.57-27.65,22.48a24.23,24.23,0,0,0-15.07,1.66c-7.71,3.51-12.66,10.59-15.39,15.73-9.56-3.54-19.32,1.85-23.73,5.89-4.78,4.23-20.28,9.48-28.93,11.79a5.46,5.46,0,0,0,1.41,10.74H381.25a5.47,5.47,0,1,0,0-10.93H265a31,31,0,0,0,5-3.47C270.36,53.58,278.66,46.1,285.4,51.81Z"/><path d="M209.24,57.37a5.47,5.47,0,1,0,0,10.93h3.91a5.47,5.47,0,1,0,0-10.93Z"/><path d="M430.86,272.45H414.63a344.26,344.26,0,0,1-70.5-57.51,5.46,5.46,0,0,0-7.93,7.52,363.55,363.55,0,0,0,58.26,50H353.79c-13.51-11.18-20.68-19.84-20.76-19.93a5.46,5.46,0,1,0-8.45,6.92,144.38,144.38,0,0,0,12.63,13H277.79a93.38,93.38,0,0,1-9.23-22.16,5.46,5.46,0,1,0-10.63,2.53,99.83,99.83,0,0,0,7.45,19.63H141.25a98.37,98.37,0,0,0,9.14-13.89,5.47,5.47,0,1,0-9.65-5.15,94.67,94.67,0,0,1-13.85,19H63.81a585.77,585.77,0,0,0,48-42.83,5.47,5.47,0,1,0-7.71-7.75,546.67,546.67,0,0,1-58.22,50.58H33.54a5.47,5.47,0,0,0,0,10.94H430.86a5.47,5.47,0,0,0,0-10.94Z"/><path d="M12.12,272.45H5.47a5.47,5.47,0,0,0,0,10.94h6.65a5.47,5.47,0,0,0,0-10.94Z"/></g></g></svg>