<svg width="15" height="15" viewBox="0 0 15 15" fill="none" xmlns="http://www.w3.org/2000/svg">
<g id="Icon" clip-path="url(#clip0_6511_6388)">
<path id="Vector" d="M6.77984 7.23342H0.339844V2.56675C0.339844 2.10009 0.510955 1.69564 0.853177 1.35342C1.1954 1.0112 1.6154 0.840088 2.11318 0.840088H6.77984V7.23342ZM1.50651 6.06675H5.61318V2.00675H2.11318C1.92651 2.00675 1.77873 2.0612 1.66984 2.17009C1.56095 2.27898 1.50651 2.4112 1.50651 2.56675V6.06675ZM14.3398 7.23342H7.94651V0.840088H12.6132C13.0798 0.840088 13.4843 1.0112 13.8265 1.35342C14.1687 1.69564 14.3398 2.11564 14.3398 2.61342V7.23342ZM9.11318 6.06675H13.1732V2.56675C13.1732 2.4112 13.1187 2.27898 13.0098 2.17009C12.901 2.0612 12.7687 2.00675 12.6132 2.00675H9.11318V6.06675ZM6.77984 14.8401H2.11318C1.6154 14.8401 1.1954 14.669 0.853177 14.3268C0.510955 13.9845 0.339844 13.5801 0.339844 13.1134V8.40009H6.77984V14.8401ZM1.50651 9.56675V13.0668C1.50651 13.2534 1.56095 13.4012 1.66984 13.5101C1.77873 13.619 1.92651 13.6734 2.11318 13.6734H5.61318V9.56675H1.50651ZM12.6132 14.8401H7.94651V8.40009H14.3398V13.0668C14.3398 13.5645 14.1687 13.9845 13.8265 14.3268C13.4843 14.669 13.0643 14.8401 12.5665 14.8401H12.6132ZM9.11318 13.6734H12.6132C12.7687 13.6734 12.901 13.619 13.0098 13.5101C13.1187 13.4012 13.1732 13.2534 13.1732 13.0668V9.56675H9.11318V13.6734Z" fill="black"/>
</g>
<defs>
<clipPath id="clip0_6511_6388">
<rect width="14" height="14" fill="white" transform="matrix(1 0 0 -1 0.339844 14.8401)"/>
</clipPath>
</defs>
</svg>
