<svg width="28" height="29" viewBox="0 0 28 29" fill="none" xmlns="http://www.w3.org/2000/svg">
<g clip-path="url(#clip0_1_2881)">
<path d="M20.9998 13.0104C19.6241 13.0137 18.282 12.5846 17.1633 11.7838V17.3688C17.1629 18.4032 16.8467 19.4128 16.2571 20.2627C15.6674 21.1126 14.8323 21.7622 13.8635 22.1246C12.8946 22.487 11.8383 22.5451 10.8356 22.2909C9.83286 22.0368 8.93165 21.4826 8.25243 20.7024C7.57321 19.9223 7.14836 18.9533 7.03468 17.9252C6.921 16.8971 7.12392 15.8587 7.61629 14.949C8.10867 14.0393 8.86704 13.3016 9.78999 12.8346C10.7129 12.3675 11.7565 12.1933 12.7811 12.3354V15.1444C12.3122 14.997 11.8088 15.0014 11.3426 15.1571C10.8764 15.3129 10.4713 15.6119 10.1852 16.0116C9.89916 16.4112 9.74668 16.8911 9.74958 17.3826C9.75247 17.8741 9.9106 18.3521 10.2014 18.7484C10.4921 19.1447 10.9007 19.4389 11.3687 19.5891C11.8367 19.7394 12.3402 19.7379 12.8073 19.5849C13.2743 19.4319 13.6811 19.1352 13.9696 18.7372C14.258 18.3393 14.4133 17.8603 14.4133 17.3688V6.45068H17.1633C17.1614 6.68291 17.1808 6.91483 17.2214 7.1435C17.317 7.65396 17.5157 8.13956 17.8053 8.5706C18.095 9.00164 18.4696 9.36905 18.9061 9.65037C19.5272 10.061 20.2553 10.2799 20.9998 10.2797V13.0104Z" fill="white"/>
</g>
<defs>
<clipPath id="clip0_1_2881">
<rect width="16" height="16" fill="white" transform="translate(6 6.45068)"/>
</clipPath>
</defs>
</svg>
