<svg width="15" height="16" viewBox="0 0 15 16" fill="none" xmlns="http://www.w3.org/2000/svg">
<path d="M15 6.56135C13.5255 6.56464 12.0872 6.13547 10.8882 5.33448V10.9209C10.8878 11.9556 10.5489 12.9654 9.91697 13.8155C9.28498 14.6656 8.38999 15.3154 7.35166 15.6779C6.31333 16.0404 5.18116 16.0985 4.10653 15.8443C3.0319 15.59 2.06604 15.0357 1.33809 14.2553C0.610146 13.475 0.154814 12.5058 0.0329802 11.4774C-0.0888536 10.449 0.128618 9.41041 0.656317 8.50048C1.18402 7.59055 1.99679 6.85266 2.98596 6.38548C3.97512 5.91831 5.09353 5.74411 6.19164 5.88618V8.69595C5.68915 8.54844 5.14955 8.55288 4.64993 8.70865C4.1503 8.86442 3.71618 9.16355 3.40957 9.56332C3.10296 9.96309 2.93954 10.4431 2.94264 10.9347C2.94574 11.4263 3.11521 11.9044 3.42685 12.3008C3.73848 12.6972 4.17634 12.9915 4.6779 13.1418C5.17946 13.2921 5.71907 13.2906 6.21967 13.1375C6.72027 12.9845 7.15626 12.6878 7.46538 12.2897C7.7745 11.8916 7.94093 11.4125 7.94092 10.9209V0H10.8882C10.8862 0.23229 10.907 0.464263 10.9505 0.692988C11.0529 1.20358 11.2659 1.68931 11.5763 2.12045C11.8868 2.5516 12.2882 2.91911 12.756 3.2005C13.4217 3.61126 14.202 3.83019 15 3.83003V6.56135Z" fill="white"/>
</svg>
